<svg xmlns="http://www.w3.org/2000/svg" width="900" height="390" viewBox="0 0 900 390" role="img" aria-label="SYS.DEMO :: AI_OPS · 30D · 482M tokens · 121.8 agent hours"><style>text{font-family:'JetBrains Mono','Fira Code','SF Mono',Menlo,Consolas,'Liberation Mono','Noto Sans Mono CJK TC',monospace}.sc{animation:sc 5s linear infinite}@keyframes sc{to{transform:translateX(250px)}}.rg{animation:rg 3s ease-in-out infinite}@keyframes rg{50%{opacity:.1}}.pl{stroke-dasharray:6 4;animation:pl 2s linear infinite}@keyframes pl{to{stroke-dashoffset:-20}}.on{animation:on 1.6s steps(2) infinite}@keyframes on{50%{opacity:.25}}.cu{animation:cu 1s steps(2) infinite}@keyframes cu{50%{opacity:0}}.g1{animation:g1 3.7s steps(1) infinite}.g2{animation:g2 3.7s steps(1) infinite}@keyframes g1{0%,88%,100%{transform:none}90%{transform:translate(-5px,-2px)}93%{transform:translate(4px,1px)}}@keyframes g2{0%,88%,100%{transform:none}90%{transform:translate(5px,2px)}93%{transform:translate(-3px,-1px)}}@media (prefers-reduced-motion:reduce){.sc,.rg,.pl,.on,.cu,.g1,.g2{animation:none}}</style><defs><linearGradient id="ac" x1="0" x2="1"><stop offset="0" stop-color="#ff2bd6"/><stop offset="1" stop-color="#2de2e6"/></linearGradient><linearGradient id="sw" x1="0" x2="1"><stop offset="0" stop-color="#ff2bd6" stop-opacity="0"/><stop offset=".5" stop-color="#ff2bd6" stop-opacity=".4"/><stop offset="1" stop-color="#ff2bd6" stop-opacity="0"/></linearGradient><pattern id="gd" width="30" height="30" patternUnits="userSpaceOnUse"><path d="M30 0H0V30" fill="none" stroke="#ff2bd6" stroke-opacity=".05"/></pattern><pattern id="sl" width="4" height="4" patternUnits="userSpaceOnUse"><rect width="4" height="1" fill="#000" opacity=".22"/></pattern><pattern id="hz" width="10" height="10" patternUnits="userSpaceOnUse" patternTransform="rotate(45)"><rect width="5" height="10" fill="#ff2bd6"/></pattern><filter id="gw" x="-20%" y="-20%" width="140%" height="140%"><feGaussianBlur stdDeviation="3"/></filter><clipPath id="hm"><rect x="330" y="88" width="236" height="128"/></clipPath><clipPath id="fr"><path d="M22 1H899 V368 L878 389 H1 V22 Z"/></clipPath></defs><path d="M22 1H899 V368 L878 389 H1 V22 Z" fill="#0a0a0f"/><g clip-path="url(#fr)"><rect width="900" height="390" fill="url(#gd)"/><rect width="900" height="390" fill="url(#sl)"/></g><path d="M22 1H899 V368 L878 389 H1 V22 Z" fill="none" stroke="#ff2bd6" stroke-width="2" opacity=".55" filter="url(#gw)"/><path d="M22 1H899 V368 L878 389 H1 V22 Z" fill="none" stroke="#ff2bd6" stroke-width="1.5"/><path d="M22 1H142" stroke="#ff2bd6" stroke-width="4"/><path d="M758 389H878" stroke="#ff2bd6" stroke-width="4"/><rect x="34" y="27" width="40" height="12" fill="url(#hz)"/><text x="84" y="38" font-size="13" fill="#ff2bd6" text-anchor="start" font-weight="800" letter-spacing="3">SYS.DEMO :: AI_OPS</text><rect class="cu" x="282.4" y="28" width="8" height="12" fill="#ff2bd6"/><text x="300.4" y="38" font-size="10" fill="#8a8aa0" text-anchor="start" font-weight="400" letter-spacing="2">エージェント稼働ログ</text><g class="on"><text x="866" y="38" font-size="11" fill="#39ff88" text-anchor="end" font-weight="400" letter-spacing="1.5">● ONLINE</text></g><text x="790.4" y="38" font-size="11" fill="#8a8aa0" text-anchor="end" font-weight="400" letter-spacing="1.5">30D · SYNC 10-02 19:40 ·</text><path d="M34 52H866" stroke="#2a2a38"/><path d="M34.0 65.0h99.8l6 6v8h-105.8z" fill="#ff2bd6"/><text x="40" y="76" font-size="9" fill="#0a0a0f" text-anchor="start" font-weight="800" letter-spacing="1.5">TOKENS // 30D</text><text class="g1" x="30" y="136" font-size="62" font-weight="800" fill="#2de2e6" opacity=".75">482M</text><text class="g2" x="38" y="136" font-size="62" font-weight="800" fill="#ff2bd6" opacity=".75">482M</text><text x="34" y="136" font-size="62" font-weight="800" fill="#f2f2f7">482M</text><text x="34" y="160" font-size="12" fill="#f2f2f7" text-anchor="start" font-weight="700" letter-spacing="1">$449.29</text><text x="102.80000000000001" y="160" font-size="10" fill="#8a8aa0" text-anchor="start" font-weight="400" letter-spacing="1">AT API PRICES</text><text x="34" y="177" font-size="12" fill="#ff2bd6" text-anchor="start" font-weight="800" letter-spacing="1">3.7x</text><text x="77.6" y="177" font-size="10" fill="#8a8aa0" text-anchor="start" font-weight="400" letter-spacing="1">PLAN VALUE</text><path d="M34 194v30" stroke="#ff2bd6" stroke-width="2"/><text x="44" y="206" font-size="9" fill="#8a8aa0" text-anchor="start" font-weight="400" letter-spacing="1.5">AGENT HOURS</text><text x="44" y="226" font-size="19" fill="#f2f2f7" text-anchor="start" font-weight="800">122h</text><path d="M174 194v30" stroke="#ff2bd6" stroke-width="2"/><text x="184" y="206" font-size="9" fill="#8a8aa0" text-anchor="start" font-weight="400" letter-spacing="1.5">PEAK PARALLEL</text><text x="184" y="226" font-size="19" fill="#f2f2f7" text-anchor="start" font-weight="800">x5</text><path d="M34 238v30" stroke="#ff2bd6" stroke-width="2"/><text x="44" y="250" font-size="9" fill="#8a8aa0" text-anchor="start" font-weight="400" letter-spacing="1.5">LONGEST RUN</text><text x="44" y="270" font-size="19" fill="#f2f2f7" text-anchor="start" font-weight="800">2h37m</text><path d="M174 238v30" stroke="#ff2bd6" stroke-width="2"/><text x="184" y="250" font-size="9" fill="#8a8aa0" text-anchor="start" font-weight="400" letter-spacing="1.5">CACHE HIT</text><text x="184" y="270" font-size="19" fill="#f2f2f7" text-anchor="start" font-weight="800">97%</text><path d="M330.0 65.0h113.0l6 6v8h-119.0z" fill="#ff2bd6"/><text x="336" y="76" font-size="9" fill="#0a0a0f" text-anchor="start" font-weight="800" letter-spacing="1.5">ACTIVITY // 13W</text><rect x="330" y="88" width="14" height="14" fill="#7a1f6e"/><rect x="330" y="106" width="14" height="14" fill="#16161f"/><rect x="330" y="124" width="14" height="14" fill="#d22bb6"/><rect x="330" y="142" width="14" height="14" fill="#7a1f6e"/><rect x="330" y="160" width="14" height="14" fill="#7a1f6e"/><rect x="330" y="178" width="14" height="14" fill="#16161f"/><rect x="330" y="196" width="14" height="14" fill="#7a1f6e"/><rect x="348" y="88" width="14" height="14" fill="#7a1f6e"/><rect x="348" y="106" width="14" height="14" fill="#7a1f6e"/><rect x="348" y="124" width="14" height="14" fill="#d22bb6"/><rect x="348" y="142" width="14" height="14" fill="#2de2e6"/><rect x="348" y="160" width="14" height="14" fill="#d22bb6"/><rect x="348" y="178" width="14" height="14" fill="#16161f"/><rect x="348" y="196" width="14" height="14" fill="#7a1f6e"/><rect x="366" y="88" width="14" height="14" fill="#d22bb6"/><rect x="366" y="106" width="14" height="14" fill="#d22bb6"/><rect x="366" y="124" width="14" height="14" fill="#7a1f6e"/><rect x="366" y="142" width="14" height="14" fill="#7a1f6e"/><rect x="366" y="160" width="14" height="14" fill="#7a1f6e"/><rect x="366" y="178" width="14" height="14" fill="#d22bb6"/><rect x="366" y="196" width="14" height="14" fill="#7a1f6e"/><rect x="384" y="88" width="14" height="14" fill="#7a1f6e"/><rect x="384" y="106" width="14" height="14" fill="#d22bb6"/><rect x="384" y="124" width="14" height="14" fill="#7a1f6e"/><rect x="384" y="142" width="14" height="14" fill="#7a1f6e"/><rect x="384" y="160" width="14" height="14" fill="#7a1f6e"/><rect x="384" y="178" width="14" height="14" fill="#7a1f6e"/><rect x="384" y="196" width="14" height="14" fill="#d22bb6"/><rect x="402" y="88" width="14" height="14" fill="#7a1f6e"/><rect x="402" y="106" width="14" height="14" fill="#16161f"/><rect x="402" y="124" width="14" height="14" fill="#16161f"/><rect x="402" y="142" width="14" height="14" fill="#d22bb6"/><rect x="402" y="160" width="14" height="14" fill="#2de2e6"/><rect x="402" y="178" width="14" height="14" fill="#7a1f6e"/><rect x="402" y="196" width="14" height="14" fill="#7a1f6e"/><rect x="420" y="88" width="14" height="14" fill="#d22bb6"/><rect x="420" y="106" width="14" height="14" fill="#d22bb6"/><rect x="420" y="124" width="14" height="14" fill="#7a1f6e"/><rect x="420" y="142" width="14" height="14" fill="#7a1f6e"/><rect x="420" y="160" width="14" height="14" fill="#7a1f6e"/><rect x="420" y="178" width="14" height="14" fill="#d22bb6"/><rect x="420" y="196" width="14" height="14" fill="#7a1f6e"/><rect x="438" y="88" width="14" height="14" fill="#16161f"/><rect x="438" y="106" width="14" height="14" fill="#d22bb6"/><rect x="438" y="124" width="14" height="14" fill="#7a1f6e"/><rect x="438" y="142" width="14" height="14" fill="#d22bb6"/><rect x="438" y="160" width="14" height="14" fill="#7a1f6e"/><rect x="438" y="178" width="14" height="14" fill="#16161f"/><rect x="438" y="196" width="14" height="14" fill="#d22bb6"/><rect x="456" y="88" width="14" height="14" fill="#7a1f6e"/><rect x="456" y="106" width="14" height="14" fill="#16161f"/><rect x="456" y="124" width="14" height="14" fill="#d22bb6"/><rect x="456" y="142" width="14" height="14" fill="#16161f"/><rect x="456" y="160" width="14" height="14" fill="#7a1f6e"/><rect x="456" y="178" width="14" height="14" fill="#16161f"/><rect x="456" y="196" width="14" height="14" fill="#7a1f6e"/><rect x="474" y="88" width="14" height="14" fill="#7a1f6e"/><rect x="474" y="106" width="14" height="14" fill="#d22bb6"/><rect x="474" y="124" width="14" height="14" fill="#3a0f35"/><rect x="474" y="142" width="14" height="14" fill="#d22bb6"/><rect x="474" y="160" width="14" height="14" fill="#7a1f6e"/><rect x="474" y="178" width="14" height="14" fill="#7a1f6e"/><rect x="474" y="196" width="14" height="14" fill="#d22bb6"/><rect x="492" y="88" width="14" height="14" fill="#3a0f35"/><rect x="492" y="106" width="14" height="14" fill="#d22bb6"/><rect x="492" y="124" width="14" height="14" fill="#7a1f6e"/><rect x="492" y="142" width="14" height="14" fill="#16161f"/><rect x="492" y="160" width="14" height="14" fill="#d22bb6"/><rect x="492" y="178" width="14" height="14" fill="#2de2e6"/><rect x="492" y="196" width="14" height="14" fill="#3a0f35"/><rect x="510" y="88" width="14" height="14" fill="#16161f"/><rect x="510" y="106" width="14" height="14" fill="#d22bb6"/><rect x="510" y="124" width="14" height="14" fill="#7a1f6e"/><rect x="510" y="142" width="14" height="14" fill="#7a1f6e"/><rect x="510" y="160" width="14" height="14" fill="#d22bb6"/><rect x="510" y="178" width="14" height="14" fill="#7a1f6e"/><rect x="510" y="196" width="14" height="14" fill="#7a1f6e"/><rect x="528" y="88" width="14" height="14" fill="#3a0f35"/><rect x="528" y="106" width="14" height="14" fill="#3a0f35"/><rect x="528" y="124" width="14" height="14" fill="#7a1f6e"/><rect x="528" y="142" width="14" height="14" fill="#2de2e6"/><rect x="528" y="160" width="14" height="14" fill="#7a1f6e"/><rect x="528" y="178" width="14" height="14" fill="#16161f"/><rect x="528" y="196" width="14" height="14" fill="#3a0f35"/><rect x="546" y="88" width="14" height="14" fill="#16161f"/><rect x="546" y="106" width="14" height="14" fill="#16161f"/><rect x="546" y="124" width="14" height="14" fill="#16161f"/><rect x="546" y="142" width="14" height="14" fill="#16161f"/><rect x="546" y="160" width="14" height="14" fill="#16161f"/><g clip-path="url(#hm)"><rect class="sc" x="300" y="88" width="40" height="128" fill="url(#sw)"/></g><text x="330" y="233" font-size="9" fill="#8a8aa0" text-anchor="start" font-weight="400">LESS</text><rect x="358" y="224" width="10" height="10" fill="#16161f"/><rect x="372" y="224" width="10" height="10" fill="#3a0f35"/><rect x="386" y="224" width="10" height="10" fill="#7a1f6e"/><rect x="400" y="224" width="10" height="10" fill="#d22bb6"/><rect x="414" y="224" width="10" height="10" fill="#2de2e6"/><text x="432" y="233" font-size="9" fill="#8a8aa0" text-anchor="start" font-weight="400">MORE</text><text x="330" y="258" font-size="9" fill="#ff2bd6" text-anchor="start" font-weight="800" letter-spacing="1.5">FLEET</text><rect x="372.0" y="250" width="124.1" height="8" fill="#ff2bd6"/><rect x="498.1" y="250" width="54.3" height="8" fill="#2de2e6"/><rect x="554.4" y="250" width="9.6" height="8" fill="#ff2bd6"/><text x="330" y="274" font-size="9" fill="#8a8aa0" text-anchor="start" font-weight="400" letter-spacing="1">CLAUDE 65%  CODEX 29%  LOCAL 6%</text><path d="M606.0 65.0h40.4l6 6v8h-46.4z" fill="#ff2bd6"/><text x="612" y="76" font-size="9" fill="#0a0a0f" text-anchor="start" font-weight="800" letter-spacing="1.5">RANK</text><circle cx="656" cy="156" r="44" fill="none" stroke="#1e1e2a" stroke-width="8" stroke-dasharray="5.38 2.30"/><g><mask id="xp"><circle cx="656" cy="156" r="44" fill="none" stroke="#fff" stroke-width="10" stroke-dasharray="168.9 276.5" transform="rotate(-90 656 156)"/></mask><circle cx="656" cy="156" r="44" fill="none" stroke="url(#ac)" stroke-dasharray="5.38 2.30" transform="rotate(-90 656 156)" stroke-width="8" mask="url(#xp)"/><circle class="rg" cx="656" cy="156" r="44" fill="none" stroke="url(#ac)" stroke-dasharray="5.38 2.30" transform="rotate(-90 656 156)" stroke-width="14" opacity=".3" mask="url(#xp)"/></g><text x="656" y="144" font-size="10" fill="#8a8aa0" text-anchor="middle" font-weight="400" letter-spacing="2">LV</text><text x="656" y="172" font-size="30" fill="#f2f2f7" text-anchor="middle" font-weight="800">47</text><text x="716" y="116" font-size="16" fill="#ff2bd6" text-anchor="start" font-weight="800" letter-spacing="1">NETRUNNER</text><text x="716" y="140" font-size="10" fill="#8a8aa0" text-anchor="start" font-weight="400" letter-spacing="1">XP 60% &gt; LV.48</text><text x="716" y="156" font-size="10" fill="#8a8aa0" text-anchor="start" font-weight="400" letter-spacing="1">ALL-TIME 2.3B TOK</text><text x="606" y="238" font-size="9" fill="#8a8aa0" text-anchor="start" font-weight="400" letter-spacing="1.5">PROMPTS</text><text x="606" y="258" font-size="17" fill="#f2f2f7" text-anchor="start" font-weight="800">3.2k</text><text x="736" y="238" font-size="9" fill="#8a8aa0" text-anchor="start" font-weight="400" letter-spacing="1.5">SUBAGENTS</text><text x="736" y="258" font-size="17" fill="#f2f2f7" text-anchor="start" font-weight="800">57</text><line x1="34" y1="290" x2="866" y2="290" stroke="#2a2a38"/><polyline class="pl" points="34.0,281.6 62.7,284.9 91.4,283.7 120.1,282.7 148.8,287.0 177.4,279.4 206.1,284.6 234.8,290.0 263.5,282.5 292.2,276.5 320.9,286.7 349.6,290.0 378.3,279.3 407.0,285.4 435.7,285.8 464.3,280.3 493.0,283.0 521.7,286.3 550.4,287.5 579.1,287.3 607.8,285.1 636.5,276.0 665.2,286.4 693.9,290.0 722.6,287.0 751.2,290.0 779.9,290.0 808.6,290.0 837.3,290.0 866.0,290.0" fill="none" stroke="#ff2bd6" stroke-width="1.5" opacity=".8"/><path d="M34.0 307.0h60.2l6 6v8h-66.2z" fill="#ff2bd6"/><text x="40" y="318" font-size="9" fill="#0a0a0f" text-anchor="start" font-weight="800" letter-spacing="1.5">LOADOUT</text><text x="130" y="316" font-size="12" fill="#f2f2f7" text-anchor="start" font-weight="700">claude-opus-5-5</text><rect x="130" y="322" width="190" height="4" fill="#1e1e2a"/><rect x="130" y="322" width="104.5" height="4" fill="url(#ac)"/><text x="328" y="327" font-size="10" fill="#8a8aa0" text-anchor="start" font-weight="400">55%</text><text x="380" y="316" font-size="12" fill="#f2f2f7" text-anchor="start" font-weight="700">gpt-6-astra</text><rect x="380" y="322" width="190" height="4" fill="#1e1e2a"/><rect x="380" y="322" width="55.1" height="4" fill="url(#ac)"/><text x="578" y="327" font-size="10" fill="#8a8aa0" text-anchor="start" font-weight="400">29%</text><text x="630" y="316" font-size="12" fill="#f2f2f7" text-anchor="start" font-weight="700">claude-sonnet-5-5</text><rect x="630" y="322" width="190" height="4" fill="#1e1e2a"/><rect x="630" y="322" width="19.0" height="4" fill="url(#ac)"/><text x="828" y="327" font-size="10" fill="#8a8aa0" text-anchor="start" font-weight="400">10%</text><text x="34" y="350" font-size="11" fill="#f2f2f7" text-anchor="start" font-weight="400" letter-spacing="1">EVENING HACKER  //  PEAK 19:00  //  CACHE SAVED $2,256</text><path d="M34.0 361h84.8l6 6v12h-90.8z" fill="none" stroke="#ff2bd6"/><text x="43" y="374" font-size="10" fill="#ff2bd6" text-anchor="start" font-weight="700" letter-spacing="1">◆ 1B CLUB</text><path d="M130.8 361h106.4l6 6v12h-112.4z" fill="none" stroke="#ff2bd6"/><text x="139.8" y="374" font-size="10" fill="#ff2bd6" text-anchor="start" font-weight="700" letter-spacing="1">◆ STREAK x11</text><path d="M249.2 361h135.2l6 6v12h-141.2z" fill="none" stroke="#ff2bd6"/><text x="258.20000000000005" y="374" font-size="10" fill="#ff2bd6" text-anchor="start" font-weight="700" letter-spacing="1">◆ EVENING HACKER</text><path d="M396.4 361h106.4l6 6v12h-112.4z" fill="none" stroke="#ff2bd6"/><text x="405.4" y="374" font-size="10" fill="#ff2bd6" text-anchor="start" font-weight="700" letter-spacing="1">◆ CACHE LORD</text><path d="M514.8 361h84.8l6 6v12h-90.8z" fill="none" stroke="#ff2bd6"/><text x="523.8" y="374" font-size="10" fill="#ff2bd6" text-anchor="start" font-weight="700" letter-spacing="1">◆ HOMELAB</text><path d="M611.6 361h92.0l6 6v12h-98.0z" fill="none" stroke="#ff2bd6"/><text x="620.5999999999999" y="374" font-size="10" fill="#ff2bd6" text-anchor="start" font-weight="700" letter-spacing="1">◆ POLYGLOT</text></svg>
